<svg version="1.2" xmlns="http://www.w3.org/2000/svg" viewBox="0 0 1024 1024" width="1024" height="1024">
	<title>logo</title>
	<style>
		.s0 { opacity: .43;fill: #333735 } 
		.s1 { opacity: 1;fill: #444941 } 
		.s2 { opacity: .98;fill: #e09b40 } 
	</style>
	<g id="Background">
		<path id="Path 0" class="s0" d="m711 670l-5.5 0.7c10.9 0.1 15.1-0.3 16.5-0.7 2.1-0.7 1.9-0.8-1.5-0.7-2.2 0-6.5 0.3-9.5 0.7z"/>
		<path id="Path 1" fill-rule="evenodd" class="s1" d="m690.5 471.5l0.3 43.8c0.1 24 0.5 43.7 0.9 43.7 0.5 0 3.3-2.5 6.3-5.4 3.2-3.1 8.3-6.7 12-8.5 3.6-1.7 9-3.5 12-4.1 3-0.6 7.8-1 10.5-1 2.8 0 7.7 0.7 11 1.6 3.3 0.8 8.7 3 11.9 4.7 3.3 1.8 8.5 6 11.7 9.4 3.3 3.6 7.2 9 8.8 12.5 1.6 3.5 3.7 9.2 4.7 12.8 1.4 4.8 1.8 10.1 1.8 20.5 0 12.5-0.3 14.9-2.7 22-1.5 4.4-4.4 10.7-6.6 14-2.1 3.3-7 8.9-10.7 12.5-3.8 3.6-10 8.3-13.9 10.5-3.9 2.1-10.4 5-14.5 6.3-6.7 2.2-9.3 2.4-23.5 2.4-11 0-17.6-0.5-21-1.5-2.8-0.8-7.1-2-9.6-2.8-4.5-1.4-4.8-1.3-8.8 1.3-2.2 1.6-4.9 2.8-5.9 2.8-1.6 0-1.7-3.5-0.8-66.2 0.5-36.5 0.8-73.7 0.7-82.8-0.2-9.1-0.7-18.5-1.2-21-0.6-2.5-1.8-5.3-2.7-6.3-0.9-1-4.1-2.4-7-3.2-4-1.2-5.2-1.9-5.2-3.5 0-1.1 0.3-2.2 0.8-2.4 0.4-0.3 5.2-1.8 10.7-3.5 5.5-1.6 13.1-4.3 17-6 3.9-1.6 8.4-2.9 13-2.6zm6.5 91l-5.5 3-0.5 74c4.2 8.7 6.6 11.7 9.8 14 2.6 2 6.5 4.1 8.7 4.7 2.2 0.7 6.7 1.2 10 1.2 4.3 0 7.6-0.8 11.5-2.5 3-1.4 7.1-3.9 9-5.6 1.9-1.6 4.9-5.2 6.7-7.9 1.8-2.7 4.4-8.3 5.8-12.4 1.7-4.9 2.8-10.6 3.2-16.5 0.4-6.2 0-12-1.1-18.5-0.9-5.2-2.8-12-4.2-15-1.4-3-4-7.4-5.7-9.8-1.8-2.4-5.4-5.9-8.2-7.7-2.7-1.9-7.7-4.1-11-5-3.3-0.8-7.4-1.5-9-1.4-1.6 0-5.5 0.6-8.5 1.3-3 0.6-8 2.5-11 4.1zm-502.5-88.4c4.4-0.1 9.6 0.3 11.5 0.8 1.9 0.6 4.6 1.8 5.9 2.8 2.2 1.7 2.3 2 1 5.8-0.7 2.2-3 5.7-5.1 7.8-2.9 2.8-4.3 3.6-6.1 3.1-1.2-0.3-4.5-1.9-7.2-3.6-2.9-1.8-6.9-3.3-9.5-3.6-2.9-0.3-5.9 0.2-8.3 1.2-2.8 1.2-4.3 2.8-5.9 6.4-2.1 4.4-2.3 6.3-2.8 49.2l30.5 0.5 0.3 5c0.1 3-0.3 5.5-1 6.3-1 0.9-5.2 1.3-29.8 1.2l0.3 46.4c0.2 45.2 0.3 46.5 2.3 49.3 1.4 1.9 3.9 3.4 8 4.6 3.2 1 6.6 2.2 7.4 2.6 0.8 0.5 1.6 1.7 1.8 2.7 0.2 1-0.3 2.4-1 2.9-0.8 0.7-12.1 0.8-62.3 0l-0.3-2.7c-0.1-1.6 0.4-3 1-3.2 0.7-0.2 3.9-1.1 7-2 5-1.4 6-2.1 7.3-5.1 1.2-2.8 1.5-8.5 1.5-28.7 0-13.9-0.3-34.9-1.5-67.8h-7c-3.8 0-8-0.4-9.3-0.8-2.1-0.6-2.3-1.2-1.7-9.7l18-0.6 0.7-10.7c0.4-5.9 1.5-13.4 2.3-16.7 0.9-3.3 3.3-9.1 5.3-13 2.3-4.5 6.3-9.7 11.2-14.6 4.3-4.4 9.8-8.8 13-10.4 3-1.6 7.5-3.4 10-4.1 2.5-0.7 8.1-1.3 12.5-1.3zm667 65.3c9.6 0.3 11.8 0.7 17.5 3.3 3.9 1.8 8.5 4.9 11.4 7.9 3 3 6.4 8 8.7 12.9 2.2 4.4 4.4 10.3 4.9 13 0.6 2.8 1 7 0.5 14l-39 0.5c-21.5 0.3-39.1 0.7-39.3 0.8-0.1 0.1-0.2 3.7-0.2 8 0 4.5 0.8 11 2 15.7 1.2 4.4 3.4 10.3 5 13 1.5 2.8 5 7 7.7 9.5 2.6 2.4 7.3 5.5 10.3 6.9 4.8 2.2 6.9 2.6 16 2.6 9.1 0 11.2-0.3 16-2.5 3-1.4 8.8-5.1 13-8.3 4.1-3.1 8.1-5.7 8.7-5.7 0.7 0 1.5 0.9 1.8 2 0.3 1.1-0.5 4.1-1.7 6.8-1.2 2.6-5.6 8.1-9.8 12.3-5.9 6-9.4 8.5-16.4 12-8.9 4.4-9 4.4-21.5 4.8-11.3 0.3-13.3 0.1-19.6-2.1-3.9-1.3-9.7-4.2-12.9-6.3-3.3-2.2-8-6.5-10.4-9.5-2.4-3-5.7-8.1-7.3-11.2-1.6-3.2-3.9-9.3-5.1-13.5-1.7-6.2-2.2-10.4-2.2-20.3 0-8.6 0.6-14.5 1.7-19 1-3.6 3.6-10.3 5.8-15 3.2-6.7 5.7-10.1 11.7-16.1 5.2-5.1 9.8-8.6 14.2-10.7 3.6-1.8 9-3.8 12-4.7 3.9-1.1 8.8-1.4 16.5-1.1zm-16 11.8c-1.6 0.9-4.2 2.8-5.8 4.2-1.5 1.4-4.1 4.7-5.7 7.4-1.7 2.6-4 7.6-5.1 11.2-1 3.6-1.9 6.8-1.9 7.3 0 0.4 8.9 0.4 19.8 0.1 10.8-0.3 21.9-1 24.7-1.5 2.7-0.6 5.3-1.5 5.7-2.2 0.4-0.7 0.8-3.3 0.8-5.9 0-3.5-0.9-6.5-3.3-11-2.4-4.7-4.3-6.9-7.7-8.9-2.5-1.5-6.3-3-8.5-3.2-2.2-0.3-5.4-0.2-7 0.2-1.6 0.4-4.4 1.5-6 2.3z"/>
		<path id="Path 2" class="s0" d="m450.4 632.5c0 8.8 0.2 12.2 0.3 7.5 0.2-4.7 0.2-11.9 0-16-0.1-4.1-0.3-0.3-0.3 8.5z"/>
		<path id="Path 3" class="s2" d="m495.4 254.8c0 9.8-0.5 19.4-1.3 23.2-0.7 3.6-2.4 9.9-3.8 14-1.3 4.1-4.2 11.1-6.3 15.5-2.1 4.4-8.9 15.6-15.2 25-6.2 9.4-12.7 19.5-14.5 22.5-1.7 3-4.2 8.4-5.6 12-1.4 3.6-3.2 10.3-3.9 15-0.8 5.4-1.1 12.1-0.7 18.5 0.4 7.2 1.4 12.4 3.5 18.5 1.6 4.7 5.1 12.1 7.8 16.5 3.2 5.1 8.8 11.8 15.5 18.6 5.8 5.8 14 12.9 18.1 15.8 4.1 2.8 8.3 5.1 9.3 5.1 0.9 0 4.3-3 7.5-6.7 3.1-3.7 9.7-11.1 14.7-16.6 5-5.4 12-13.8 15.8-18.5 3.9-5.1 9.2-13.7 12.7-20.7 3.5-7 7-16 8.5-21.5 1.4-5.2 2.9-13.3 3.3-18 0.5-4.7 0.7-12.1 0.6-16.5-0.2-4.4-1.2-12.3-2.2-17.5-1.1-5.2-3.2-13.1-4.7-17.5-1.5-4.4-5.2-13.2-8.2-19.5-3-6.3-8.2-15.8-11.7-21-3.4-5.2-9.6-13.6-13.8-18.5-4.1-5-11.1-12.5-15.4-16.7-4.4-4.2-8.4-7.7-8.9-7.8-0.7 0-1.1 5.9-1.1 16.7z"/>
		<path id="Path 4" fill-rule="evenodd" class="s1" d="m250.5 471.3c2 0.2 2 1.1 2.5 89.2 0.4 63.3 0.8 89.7 1.6 91.5 0.7 1.4 2 3.3 3 4.2 1.1 1 3.9 2.1 6.3 2.5 2.4 0.5 4.8 1.5 5.4 2.3 0.5 0.8 0.7 2.3 0.4 3.2-0.6 1.7-3 1.8-60.7 1.8v-3c0-2.7 0.4-3 3.8-3.5 2-0.3 5.2-1.5 7.1-2.7 2.2-1.5 3.9-3.8 4.8-6.3 1.1-3.2 1.5-18.8 2-78 0.5-67.2 0.4-74.3-1.1-77.8-1.2-2.9-2.6-4.1-6.2-5.5-4.1-1.5-4.5-1.9-3.8-4.1 0.6-2 2.3-2.9 10.8-5.6 5.6-1.7 12.8-4.4 16.1-5.8 3.3-1.5 6.9-2.6 8-2.4zm616.8 15.7c4.4 0 6.2 0.5 7.7 2 1.1 1.1 2.3 3.2 2.6 4.7 0.4 1.6 0.4 4.3 0 6-0.4 2.1-1.8 4.2-3.8 5.7-1.8 1.4-7.6 4.5-12.8 6.9-5.2 2.5-13.5 6.4-18.5 8.6-4.9 2.3-9.6 4.1-10.2 4.1-0.7 0-1.3-0.8-1.3-1.8 0.1-0.9 5.6-8.6 12.3-17 6.7-8.3 13.6-16.1 15.2-17.2 2.1-1.4 4.7-2 8.8-2zm-374.3 52.1c0.8 0 4.3 0.4 7.8 0.9 3.4 0.6 8.5 2.1 11.2 3.5 2.8 1.4 6.9 4.2 9.1 6.2 2.3 2.1 5 5.6 6.1 7.8 1.1 2.2 2.2 4.2 2.4 4.5 0.2 0.3 3.2-2.2 6.6-5.4 3.5-3.3 8.3-7.2 10.8-8.8 2.5-1.6 6.9-3.7 9.8-4.8 2.8-1.1 8.2-2.5 11.8-3 4.4-0.7 8.5-0.7 12.7 0 3.4 0.6 8.5 2.1 11.2 3.3 2.8 1.3 6.8 3.9 9 5.9 2.2 1.9 5.4 6.2 7.2 9.4 1.7 3.3 3.6 8.6 4.2 11.9 0.7 3.5 1.1 20.2 1.2 40.5 0 23.3 0.4 35.8 1.2 38.4 0.7 2.1 2.3 4.7 3.7 5.8 1.4 1 4.8 2.4 7.5 3.1 4.1 1.1 5.1 1.8 5.3 3.8 0.2 1.5-0.3 2.9-1.5 3.7-1.3 0.9-8.2 1.2-26.8 1.2-13.7 0-27.1-0.3-29.8-0.7-4.2-0.7-4.7-1.1-4.7-3.3-0.1-2.2 0.8-2.8 7.2-5 6.2-2.1 7.6-3 9.1-6 1.6-3.2 1.7-6.6 1.5-39-0.3-31.7-0.5-35.9-2.1-39.5-1-2.2-2.9-5.5-4.3-7.3-1.3-1.7-4.8-4.4-7.6-5.9-4.4-2.3-6.5-2.7-12.8-2.7-5.3 0-9.1 0.7-13 2.2-3 1.2-7.6 3.8-15 9.2v37.7c0 20.8 0.5 39.6 1 41.8 0.5 2.2 2 5 3.2 6.2 1.3 1.2 4.8 2.8 7.8 3.5 5 1.3 5.5 1.7 5.8 4.4 0.3 2.7 0 3-3.5 3.6-2.1 0.4-13.9 0.8-26.3 0.8-12.4 0-24.6-0.3-27.3-0.7-3.8-0.7-4.7-1.2-4.7-2.8 0-1.1 0.5-2.6 1.2-3.3 0.7-0.6 1.9-1.2 2.7-1.2 0.9 0 4-1.1 6.9-2.5 4.4-2.1 5.4-3.1 6.3-6.3 0.7-2.4 0.9-15.4 0.7-37.7-0.3-33.8-0.3-34-2.8-39.4-1.4-3-4.4-7.1-6.7-9.2-2.8-2.6-6.3-4.5-10-5.5-3.9-1.1-7.5-1.4-11-1-2.9 0.3-7.7 1.5-10.5 2.6-2.9 1.1-7.1 3.3-13.3 7.6l-0.8 39.4c-0.5 25.5-0.5 40.2 0.1 41.5 0.6 1.1 1.3 2.8 1.6 3.7 0.3 1 1.8 2.6 3.4 3.5 1.5 1 5 2.3 7.7 2.9 4.6 1 5 1.3 5 6.9l-13 0.9c-7.1 0.4-21.2 0.6-49.5-0.4l0.3-3.1c0.2-2.9 0.6-3.3 4.7-4.3 2.5-0.6 5.8-1.9 7.3-2.9 1.5-0.9 3.4-3.4 4.3-5.5 1.4-3.2 1.5-8.7 1.2-41.7-0.3-36.2-0.4-38.2-2.4-42-1.6-3.2-3-4.3-6.6-5.5-2.6-0.8-5.1-2-5.8-2.5-0.6-0.5-1-2.1-0.8-3.5 0.3-2.3 1.2-2.7 11.8-5.5 6.3-1.7 15.4-4.6 20.2-6.5 4.8-1.9 9.1-3.1 9.5-2.7 0.5 0.5 0.9 4.9 1.1 9.8 0.1 4.9 0.5 8.9 1 8.9 0.4 0 2.3-1.6 4.2-3.5 1.9-2 5.8-5.1 8.5-7 2.8-1.8 7.5-4.3 10.5-5.5 3-1.2 8-2.5 11-3 3-0.4 6.2-0.8 7-0.9zm-152 1.4c7.2 0.4 9.5 0.9 15 3.7 4.5 2.3 7.5 4.8 10.2 8.3 2.1 2.7 4.8 7.9 6 11.5 2 6.1 2.2 9.1 2.8 45 0.4 31.2 0.8 39 2 41.3 0.9 1.6 2.8 3.2 4.8 3.7 2.6 0.8 4 0.6 7.2-1 2.2-1.1 4.5-2 5-2 0.6 0 1 1.2 1 2.7 0 2-1.4 4.1-4.8 7.4-3.1 3-6.6 5.1-10.2 6.3-4.2 1.4-7.2 1.7-12.5 1.3-4.6-0.4-7.9-1.2-9.5-2.4-1.4-1.1-3.7-4.4-5.3-7.4-1.5-2.9-2.7-6.4-2.7-7.7 0-1.2-0.1-2.2-0.2-2.2-0.2 0-3.4 3-7.3 6.8-4.1 4-9.5 8-13 9.8-5.6 2.7-6.7 2.9-18 2.9-10.3 0-12.6-0.3-16-2.1-2.2-1.2-5.5-3.9-7.3-6-1.7-2.1-3.9-5.9-4.7-8.4-0.8-2.5-1.5-7.6-1.5-11.5 0-5.2 0.6-8.3 2.3-12 1.4-3 4.6-7 7.8-9.8 3-2.7 9.1-6.6 13.7-8.8 4.5-2.1 13.3-5.7 19.5-7.8 6.1-2.2 13.8-5 22.8-8.6l-0.1-8.5c0-4.7-0.4-11-1-14-0.6-3-2.1-7.5-3.3-10-1.3-2.5-3.9-5.5-5.8-6.8-2.6-1.8-4.8-2.2-9.6-2.2-3.5 0-7.5 0.6-9 1.4-1.6 0.7-4.2 2.9-5.8 4.7-1.7 1.9-4.4 6.8-5.9 10.9-1.6 4.1-4.2 8.7-5.7 10.2-1.8 1.8-4.5 3-7.1 3.4-2.8 0.4-5.4 0.1-7.3-0.7-2.6-1.2-3-2-3.2-5.7-0.2-2.6 0.4-5.7 1.7-8.2 1.1-2.2 4.4-6.4 7.4-9.3 3-2.8 7.8-6.7 10.8-8.4 2.9-1.8 8-4.4 11.3-5.8 3.3-1.3 8.5-2.9 11.5-3.4 3-0.6 9.3-0.8 14-0.6zm-16 71c-1.9 1-5.3 3.2-7.4 4.9-2.1 1.7-5 5.1-6.5 7.6-2 3.4-2.6 5.8-2.5 10 0 3 0.8 7 1.7 8.7 1 1.8 2.9 4.2 4.5 5.3 1.5 1.2 4.3 2.6 6.2 3.2 1.9 0.6 5.5 0.9 8 0.6 2.5-0.2 7.7-1.9 11.5-3.8l7-3.5c0.5-37 0.3-41.5-0.7-41.5-0.7 0.1-5.1 1.6-9.8 3.4-4.7 1.8-10.1 4.1-12 5.1z"/>
	</g>
</svg>